HIERARCHY
ROOT Hips
{
 OFFSET 0.000000 0.000000 0.000000
 CHANNELS 6 Xposition Yposition Zposition Yrotation Xrotation Zrotation
 JOINT Chest
 {
  OFFSET 0.000000 9.585900 0.002600
  CHANNELS 3 Yrotation Xrotation Zrotation
  JOINT Chest2
  {
   OFFSET 0.000000 9.601200 -0.005300
   CHANNELS 3 Yrotation Xrotation Zrotation
   JOINT Chest3
   {
    OFFSET 0.000000 9.561800 0.000000
    CHANNELS 3 Yrotation Xrotation Zrotation
    JOINT Chest4
    {
     OFFSET 0.000000 9.552100 0.000000
     CHANNELS 3 Yrotation Xrotation Zrotation
     JOINT Neck
     {
      OFFSET 0.000000 14.453000 0.000000
      CHANNELS 3 Yrotation Xrotation Zrotation
      JOINT Head
      {
       OFFSET 0.000000 8.936500 -0.011300
       CHANNELS 3 Yrotation Xrotation Zrotation
       End Site
       {
        OFFSET 0.000000 17.073600 -0.006000
       }
      }
     }
     JOINT RightCollar
     {
      OFFSET -2.921100 9.558500 0.000000
      CHANNELS 3 Yrotation Xrotation Zrotation
      JOINT RightShoulder
      {
       OFFSET -13.519700 0.000000 0.000000
       CHANNELS 3 Yrotation Xrotation Zrotation
       JOINT RightElbow
       {
        OFFSET 0.000000 -29.696600 0.000000
        CHANNELS 3 Yrotation Xrotation Zrotation
        JOINT RightWrist
        {
         OFFSET 0.000000 -24.004700 0.000000
         CHANNELS 3 Yrotation Xrotation Zrotation
         End Site
         {
          OFFSET 0.000000 -17.728500 0.000000
         }
        }
       }
      }
     }
     JOINT LeftCollar
     {
      OFFSET 2.921100 9.558500 0.000000
      CHANNELS 3 Yrotation Xrotation Zrotation
      JOINT LeftShoulder
      {
       OFFSET 13.519700 0.000000 0.000000
       CHANNELS 3 Yrotation Xrotation Zrotation
       JOINT LeftElbow
       {
        OFFSET 0.000000 -29.696600 0.000000
        CHANNELS 3 Yrotation Xrotation Zrotation
        JOINT LeftWrist
        {
         OFFSET 0.000000 -24.004700 0.000000
         CHANNELS 3 Yrotation Xrotation Zrotation
         End Site
         {
          OFFSET 0.000000 -17.728500 0.000000
         }
        }
       }
      }
     }
    }
   }
  }
 }
 JOINT RightHip
 {
  OFFSET -7.771700 -0.012900 -0.001300
  CHANNELS 3 Yrotation Xrotation Zrotation
  JOINT RightKnee
  {
   OFFSET 0.000000 -40.869800 0.001200
   CHANNELS 3 Yrotation Xrotation Zrotation
   JOINT RightAnkle
   {
    OFFSET 0.000000 -39.717900 0.002100
    CHANNELS 3 Yrotation Xrotation Zrotation
    JOINT RightToe
    {
     OFFSET 0.000000 -4.965400 11.033500
     CHANNELS 3 Yrotation Xrotation Zrotation
     End Site
     {
      OFFSET 0.000000 -1.423100 5.872300
     }
    }
   }
  }
 }
 JOINT LeftHip
 {
  OFFSET 7.771700 -0.012900 -0.001300
  CHANNELS 3 Yrotation Xrotation Zrotation
  JOINT LeftKnee
  {
   OFFSET 0.000000 -40.869800 0.001200
   CHANNELS 3 Yrotation Xrotation Zrotation
   JOINT LeftAnkle
   {
    OFFSET 0.000000 -39.717900 0.002100
    CHANNELS 3 Yrotation Xrotation Zrotation
    JOINT LeftToe
    {
     OFFSET 0.000000 -4.965400 11.033500
     CHANNELS 3 Yrotation Xrotation Zrotation
     End Site
     {
      OFFSET 0.000000 -1.423100 5.872300
     }
    }
   }
  }
 }
}
MOTION
Frames: 11
Frame Time: 0.008333
0.000000 85.388000 0.000000 0.000000 -5.767877 0.000000 0.000000 11.653817 0.000000 0.000000 -5.885947 0.000000 0.000000 -0.000000 0.000000 0.000000 -0.000000 0.000000 0.000000 12.528835 0.000000 0.000000 0.711642 0.000000 0.000000 -0.000000 0.000000 0.000000 0.000000 -90.000000 0.000000 -2.309062 0.000000 0.000000 2.309062 0.000000 0.000000 -0.000000 0.000000 0.000000 -0.000000 90.000000 0.000000 -2.309062 0.000000 0.000000 2.309062 0.000000 0.000000 8.520406 0.000000 0.000000 1.905762 0.000000 -0.000000 -4.658285 0.000000 0.000000 -0.000000 0.000000 0.000000 8.520406 0.000000 0.000000 1.905762 0.000000 -0.000000 -4.658285 0.000000 0.000000 -0.000000 0.000000
-267.689993 61.042046 -80.011745 161.751960 -40.037199 -0.450981 5.190735 19.732067 1.731345 0.603098 2.469160 0.088840 0.991774 4.048632 0.159358 4.318679 16.875380 1.163948 9.044987 24.888514 -3.877347 11.040171 2.040513 -6.427083 14.885233 -0.951409 -14.987343 25.035861 -33.327963 -47.460467 -32.028753 -78.514856 35.068141 -1.085755 -1.428236 -34.670816 -23.571036 -13.325843 6.047810 -25.153913 -38.437301 27.466683 -158.850581 -62.649945 147.705760 -9.840609 5.907524 3.347153 -5.346349 -27.613869 2.438351 -17.666225 64.788675 -12.075931 1.665663 -1.296437 -3.970915 -0.195228 0.070409 -0.533153 7.754815 -29.065668 1.918536 24.213931 57.648859 25.438168 -14.965533 -13.133204 1.927771 0.371877 0.034471 0.075617
-267.713189 61.056573 -79.959839 161.777987 -40.188907 -0.483480 5.171990 19.653006 1.743343 0.604240 2.468052 0.096774 0.993866 4.046810 0.172391 4.334281 16.868114 1.220648 9.080682 25.021624 -3.946622 11.103253 2.218257 -6.515402 15.130233 -0.594010 -15.053546 25.673632 -33.842159 -47.774063 -26.018208 -80.239386 28.720434 -0.515889 -1.473552 -34.162481 -23.665601 -13.162681 5.996370 -25.558778 -38.623825 27.398176 -157.895441 -62.147389 147.200088 -9.824345 5.723532 3.393311 -5.331549 -27.409750 2.317358 -17.603816 64.651548 -11.848733 1.731004 -1.223127 -3.939174 -0.197982 0.079411 -0.543573 7.720601 -28.876340 1.935061 24.170020 57.474822 25.396997 -15.043571 -12.989468 1.877378 0.366952 0.002345 0.109982
-267.736533 61.070584 -79.895252 161.835551 -40.347133 -0.553275 5.134612 19.582864 1.783146 0.603163 2.469738 0.104632 0.992307 4.049433 0.185404 4.332271 16.871512 1.274822 9.133356 25.137713 -4.019069 11.186798 2.377704 -6.611701 15.406424 -0.265870 -15.116205 26.259466 -34.314961 -48.122216 -17.015724 -81.921052 19.345064 0.057793 -1.524487 -33.784275 -23.678480 -13.021477 5.954815 -25.947527 -38.768411 27.378917 -157.106736 -61.662338 146.843132 -9.778859 5.534741 3.493066 -5.356981 -27.203709 2.232149 -17.553428 64.512366 -11.651552 1.785887 -1.134972 -3.905436 -0.196050 0.076009 -0.547603 7.646714 -28.702733 1.988425 24.098683 57.319053 25.317120 -15.084447 -12.794157 1.821148 0.313049 -0.066252 0.141613
-267.759211 61.084942 -79.822438 161.898236 -40.521960 -0.632619 5.093842 19.539095 1.833933 0.600637 2.475361 0.112029 0.988239 4.058215 0.197555 4.316404 16.888373 1.323655 9.173960 25.276903 -4.071336 11.316444 2.475558 -6.752523 15.710471 0.013964 -15.179526 26.808607 -34.716101 -48.499639 -3.496901 -83.375926 5.405807 0.624216 -1.567414 -33.510804 -23.615834 -12.911634 5.931519 -26.309455 -38.879403 27.413804 -156.478959 -61.210785 146.615451 -9.702584 5.340420 3.657368 -5.398478 -26.985645 2.168815 -17.507741 64.370567 -11.476772 1.828474 -1.033630 -3.874275 -0.190609 0.062103 -0.544374 7.562402 -28.512785 2.048730 24.004756 57.158576 25.211014 -15.037661 -12.578257 1.769038 0.322094 -0.128202 0.168700
-267.782548 61.100483 -79.746483 161.945058 -40.721597 -0.685840 5.051189 19.540150 1.867968 0.596365 2.485114 0.118574 0.981162 4.073389 0.208057 4.284066 16.919648 1.363541 9.285623 25.324914 -4.152494 11.437639 2.607994 -6.835269 16.049523 0.233110 -15.251912 27.325482 -35.023337 -48.893049 15.616749 -84.313942 -14.170586 1.163435 -1.632840 -33.326532 -23.473069 -12.844099 5.927669 -26.634169 -38.958997 27.502515 -156.000432 -60.803140 146.500811 -9.605828 5.142380 3.891926 -5.430629 -26.747823 2.100415 -17.454426 64.227590 -11.312444 1.854251 -0.926636 -3.851371 -0.177301 0.044257 -0.531371 7.484093 -28.279011 2.097825 23.897191 56.981921 25.077362 -14.954413 -12.375226 1.721611 0.301280 -0.171250 0.191902
-267.808223 61.117300 -79.671024 161.963683 -40.945530 -0.686417 5.004967 19.590153 1.868354 0.589689 2.498822 0.124196 0.970071 4.094842 0.217091 4.231222 16.965477 1.394160 9.418586 25.356193 -4.234686 11.585312 2.712842 -6.931080 16.426269 0.393536 -15.346885 27.807655 -35.236265 -49.294636 37.765190 -84.481151 -36.813746 1.639626 -1.736944 -33.203652 -23.242285 -12.827824 5.934673 -26.912464 -39.009352 27.635377 -155.653166 -60.439905 146.474998 -9.494184 4.942761 4.199919 -5.427285 -26.502629 2.020213 -17.447419 64.091741 -11.216944 1.860172 -0.803529 -3.885818 -0.149154 0.008108 -0.452869 7.431150 -27.992312 2.111378 23.809052 56.779368 24.947223 -14.894985 -12.210295 1.680742 0.295085 -0.173645 0.212276
-267.830617 61.130917 -79.590829 162.048478 -41.148466 -0.738711 4.900721 19.636944 1.885786 0.580847 2.516266 0.130122 0.955430 4.122208 0.226707 4.161288 17.024082 1.424750 9.545273 25.392180 -4.319522 11.758645 2.784609 -7.060548 16.824098 0.508551 -15.483560 28.244169 -35.367054 -49.700805 57.105572 -83.947837 -56.671673 2.025713 -1.862013 -33.101365 -22.929386 -12.866505 5.929799 -27.134929 -39.035014 27.797556 -155.416577 -60.112424 146.505814 -9.366871 4.742225 4.569736 -5.503866 -26.259373 1.933695 -17.354486 63.952437 -11.040315 1.888448 -0.715226 -3.848575 -0.140576 0.004768 -0.460657 7.353827 -27.777183 2.138445 23.737663 56.631453 24.849985 -14.888178 -12.003577 1.646734 0.275004 -0.176131 0.200278
-267.849787 61.147787 -79.515277 162.119718 -41.386349 -0.776163 4.805134 19.724105 1.916836 0.569769 2.535225 0.137276 0.937199 4.151908 0.238225 4.076591 17.088238 1.461421 9.671599 25.426657 -4.415006 11.934642 2.855960 -7.202289 17.226380 0.601396 -15.660692 28.625347 -35.427752 -50.111436 71.052172 -83.045281 -71.141477 2.312819 -1.990546 -32.996410 -22.547558 -12.938041 5.892377 -27.297568 -39.039294 27.979619 -155.277097 -59.810249 146.574665 -9.234345 4.549158 4.971361 -5.574939 -25.977920 1.847169 -17.268061 63.811689 -10.884296 1.917572 -0.633070 -3.813730 -0.131481 0.003961 -0.465912 7.287644 -27.500229 2.158236 23.687193 56.458036 24.764573 -14.849681 -11.856692 1.629763 0.267724 -0.160350 0.193401
-267.867686 61.166295 -79.444103 162.166903 -41.640659 -0.785636 4.730961 19.822640 1.950731 0.556652 2.552939 0.145140 0.915704 4.179723 0.250772 3.980389 17.149772 1.500827 9.794843 25.470395 -4.511531 12.107849 2.939220 -7.344707 17.620318 0.688522 -15.854825 28.949611 -35.436623 -50.525805 80.639051 -82.065313 -81.224518 2.504068 -2.118258 -32.892543 -22.110837 -13.010371 5.824038 -27.400965 -39.020480 28.172256 -155.222232 -59.526915 146.670769 -9.116608 4.372139 5.372656 -5.600602 -25.699646 1.767253 -17.277485 63.683858 -10.827456 1.939168 -0.522865 -3.843669 -0.114771 -0.030249 -0.395887 7.269361 -27.183180 2.160074 23.607567 56.269839 24.666482 -14.839001 -11.766447 1.614822 0.246041 -0.101545 0.183308
-267.884755 61.183850 -79.375182 162.257385 -41.883709 -0.818246 4.638675 19.906914 1.984138 0.543374 2.568876 0.152662 0.893868 4.204820 0.262726 3.884621 17.205732 1.537683 9.909882 25.521557 -4.598274 12.269238 3.030099 -7.474010 17.978239 0.760906 -16.041423 29.220686 -35.418160 -50.941328 87.484965 -81.175561 -88.505952 2.611717 -2.237324 -32.807108 -21.643514 -13.069044 5.748569 -27.443819 -38.985456 28.361941 -155.238511 -59.263660 146.775105 -9.024044 4.208249 5.747682 -5.655836 -25.431397 1.685193 -17.302353 63.559647 -10.788653 1.927418 -0.450096 -3.822501 -0.059277 -0.034923 -0.377679 7.224719 -26.911609 2.157669 23.553023 56.122219 24.599485 -14.829252 -11.653716 1.605328 0.174881 -0.083077 0.157462
